<?xml version="1.0" encoding="UTF-8" standalone="no"?>
<svg
   width="500"
   zoomAndPan="magnify"
   viewBox="0 0 375 374.999991"
   height="500"
   preserveAspectRatio="xMidYMid meet"
   version="1.0"
   id="svg55"
   sodipodi:docname="logo.svg"
   inkscape:version="1.2.2 (b0a8486, 2022-12-01)"
   xmlns:inkscape="http://www.inkscape.org/namespaces/inkscape"
   xmlns:sodipodi="http://sodipodi.sourceforge.net/DTD/sodipodi-0.dtd"
   xmlns="http://www.w3.org/2000/svg"
   xmlns:svg="http://www.w3.org/2000/svg">
  <sodipodi:namedview
     id="namedview57"
     pagecolor="#ffffff"
     bordercolor="#000000"
     borderopacity="0.25"
     inkscape:showpageshadow="2"
     inkscape:pageopacity="0.0"
     inkscape:pagecheckerboard="0"
     inkscape:deskcolor="#d1d1d1"
     showgrid="false"
     inkscape:zoom="0.39333333"
     inkscape:cx="-125.84746"
     inkscape:cy="251.69492"
     inkscape:window-width="1309"
     inkscape:window-height="456"
     inkscape:window-x="0"
     inkscape:window-y="25"
     inkscape:window-maximized="0"
     inkscape:current-layer="svg55" />
  <defs
     id="defs19">
    <g
       id="g2" />
    <clipPath
       id="57efc8045b">
      <path
         d="M 173.636719 72.847656 L 227 72.847656 L 227 148 L 173.636719 148 Z M 173.636719 72.847656 "
         clip-rule="nonzero"
         id="path4" />
    </clipPath>
    <clipPath
       id="3283afe1e5">
      <path
         d="M 200.050781 72.847656 L 226.460938 147.953125 L 173.636719 147.953125 L 200.050781 72.847656 "
         clip-rule="nonzero"
         id="path7" />
    </clipPath>
    <clipPath
       id="0592cd9e18">
      <path
         d="M 176 84 L 212 84 L 212 154 L 176 154 Z M 176 84 "
         clip-rule="nonzero"
         id="path10" />
    </clipPath>
    <clipPath
       id="7ae4c581e2">
      <path
         d="M 184.882812 82.089844 L 214.652344 85.800781 L 206.210938 153.523438 L 176.441406 149.816406 Z M 184.882812 82.089844 "
         clip-rule="nonzero"
         id="path13" />
    </clipPath>
    <clipPath
       id="30a99a4df5">
      <path
         d="M 175.859375 80.964844 L 214.5625 85.789062 L 204.914062 163.1875 L 166.214844 158.367188 Z M 175.859375 80.964844 "
         clip-rule="nonzero"
         id="path16" />
    </clipPath>
  </defs>
  <rect
     x="-37.5"
     width="450"
     fill="#ffffff"
     y="-37.499999"
     height="449.999989"
     fill-opacity="1"
     id="rect21" />
  <rect
     x="-37.5"
     width="450"
     fill="#c7bbbc"
     y="-37.499999"
     height="449.999989"
     fill-opacity="1"
     id="rect23" />
  <g
     id="g232"
     transform="matrix(2.3660527,0,0,1.8828586,-276.86149,-122.96067)">
    <g
       fill="#324943"
       fill-opacity="1"
       id="g31">
      <g
         transform="translate(141.61724,207.79522)"
         id="g29">
        <g
           id="g27">
          <path
             d="M 36.429688,-59.042969 50,-72.609375 c 6.15625,-6.15625 16.078125,-14.449219 22.988281,-14.449219 V -88.1875 H 52.886719 v 1.128906 c 7.664062,0 5.027343,4.898438 -3.390625,13.441406 l -33.917969,33.792969 v -37.5625 c 0,-8.289062 2.136719,-9.671875 3.015625,-9.671875 V -88.1875 H 3.769531 v 1.128906 c 0.753907,0 2.886719,1.382813 2.886719,9.671875 v 66.582031 c 0,8.167969 -2.132812,9.675782 -2.886719,9.675782 V 0 H 18.59375 v -1.128906 c -0.878906,0 -3.015625,-1.507813 -3.015625,-9.675782 v -27.511718 l 14.195313,-14.070313 23.113281,40.953125 c 4.902343,8.542969 4.523437,10.304688 3.269531,10.304688 V 0 h 15.703125 v -1.128906 c -1.507813,0 -4.648437,-3.394532 -9.925781,-12.5625 z m 0,0"
             id="path25" />
        </g>
      </g>
    </g>
    <g
       fill="#324943"
       fill-opacity="1"
       id="g39">
      <g
         transform="translate(167.00462,242.50768)"
         id="g37">
        <g
           id="g35">
          <path
             d="m 5.402344,-32.789062 c 11.683594,43.71875 74.746094,43.46875 82.785156,2.640624 l -1.003906,-0.253906 c -7.410156,37.4375 -61.554688,37.3125 -72.863282,-4.773437 -5.273437,-19.597657 1.257813,-45.476563 22.863282,-51.253907 18.089844,-4.773437 33.417968,8.667969 41.207031,24.246094 h 1.128906 l 2.890625,-11.054687 c -10.804687,-12.6875 -28.265625,-18.84375 -45.476562,-14.195313 -23.867188,6.40625 -37.9375,30.777344 -31.53125,54.644532 z m 0,0"
             id="path33" />
        </g>
      </g>
    </g>
    <g
       clip-path="url(#57efc8045b)"
       id="g45">
      <g
         clip-path="url(#3283afe1e5)"
         id="g43">
        <path
           fill="#c7bbbc"
           d="m 173.63672,72.847656 h 52.55469 v 74.449214 h -52.55469 z m 0,0"
           fill-opacity="1"
           fill-rule="nonzero"
           id="path41" />
      </g>
    </g>
    <g
       clip-path="url(#0592cd9e18)"
       id="g53">
      <g
         clip-path="url(#7ae4c581e2)"
         id="g51">
        <g
           clip-path="url(#30a99a4df5)"
           id="g49">
          <path
             fill="#324943"
             d="m 192.57422,118.82422 c -0.16797,-1.22656 -0.59766,-2.28125 -0.91016,-3.35938 -0.32031,-1.11328 -0.69531,-2.21875 -0.79297,-3.37109 -0.0937,-1.15625 -0.13281,-2.30859 -0.35547,-3.44922 -0.22265,-1.14453 -0.26171,-2.30078 -0.24218,-3.45703 0.0195,-1.15234 0.0937,-2.30078 0.14453,-3.45703 -0.3125,-0.125 -0.28906,0.15625 -0.33203,0.28516 -0.75782,2.22656 -0.85547,4.51953 -0.8125,6.85156 0.043,2.52344 0.98047,5.14844 1.92578,7.76172 0.0781,0.21484 0.21484,0.41406 0.14453,0.66015 -0.6875,-0.35937 -0.84375,-1.08203 -1.07813,-1.71093 -0.5,-1.34375 -0.92187,-2.71875 -1.36328,-4.08594 -0.0859,-0.26172 -0.14453,-0.53906 -0.17187,-0.8125 -0.16797,-1.75 -0.32422,-3.48828 -0.23828,-5.26563 0.13281,-2.65234 1.1914,-4.92968 2.33203,-7.214841 0.0234,-0.04297 0.0508,-0.07813 0.0742,-0.117188 0.29687,-0.433593 0.67187,-0.414062 0.98047,0.05078 0.33984,0.511719 0.5039,1.089844 0.62109,1.683594 0.18359,0.964845 0.5,1.871095 0.99609,2.726565 0.20313,0.35547 0.39453,0.74609 0.48047,1.14453 0.30078,1.41016 0.72266,2.78125 1.11328,4.16406 0.15235,0.53125 0.22266,1.08985 0.26953,1.64453 0.16016,2 -0.0195,3.98438 -0.39453,5.94922 -0.1914,0.9961 -0.41406,2.00391 -0.95703,2.89063 -0.375,0.61719 -0.5,1.28906 -0.48047,1.99609 0.0273,1.11328 -0.0117,2.22656 -0.13281,3.33203 -0.0156,0.13672 -0.008,0.27735 0.1875,0.28516 0.0742,-0.0508 0.17578,-0.0859 0.21094,-0.15234 1.6875,-3.35547 3.33984,-6.72657 4.66015,-10.25 0.19922,-0.52735 0.29688,-1.0625 0.28516,-1.62891 -0.0312,-1.4375 -0.043,-2.87109 -0.15234,-4.30859 -0.10157,-1.33594 -0.125,-2.6875 -0.10157,-4.02735 0.0234,-1.30078 0.21875,-2.59375 0.58204,-3.84375 0.89843,-3.089843 2.19531,-6 3.88671,-8.738281 1.01954,-1.660156 1.85547,-3.414062 2.49219,-5.261719 0.11328,-0.328125 0.0391,-0.882812 0.45313,-0.921875 0.5039,-0.04687 0.55468,0.519532 0.6875,0.890625 0.1289,0.347657 0.21875,0.707031 0.29297,1.074219 0.38281,1.859375 0.84375,3.699219 1.22656,5.5625 0.53125,2.617188 0.35547,5.179688 -0.32813,7.703131 -0.44531,1.65234 -1.11718,3.24218 -1.71484,4.85156 -0.375,1.0039 -0.95313,1.90234 -1.51563,2.80859 -1.04296,1.66406 -2.39453,3.0625 -3.78125,4.41797 -1.14843,1.12109 -2.11718,2.32422 -2.53515,3.91016 -0.0625,0.21875 -0.17578,0.42578 -0.26953,0.64062 -1.66016,3.88281 -3.55469,7.64844 -5.54688,11.36328 -0.0781,0.14453 -0.21875,0.29688 -0.043,0.5 0.75,-0.0781 1.20703,-0.62109 1.63672,-1.15234 0.98828,-1.22656 1.89063,-2.51953 2.63672,-3.91406 1.13672,-2.125 2.38672,-4.17578 3.73828,-6.17578 1.82813,-2.69141 4.11328,-4.85938 6.91406,-6.48829 0.27735,-0.16406 0.53125,-0.37109 0.76954,-0.58984 1.16015,-1.0625 2.29296,-2.15234 3.03906,-3.57812 0.10937,-0.20704 0.21094,-0.59766 0.5664,-0.44141 0.30079,0.13672 0.21875,0.47656 0.1875,0.75 -0.0312,0.27734 -0.0664,0.55078 -0.125,0.82422 -0.1914,0.90625 -0.3789,1.8164 -0.59375,2.71875 -0.64062,2.67969 -1.59375,5.23437 -3.19921,7.49609 -0.71875,1.02344 -1.38672,2.10547 -2.2461,2.9961 -1.92969,2.00781 -4.14453,3.67968 -6.53515,5.10546 -0.15625,0.0977 -0.33594,0.16407 -0.50782,0.22657 -1.85937,0.6875 -3.63672,1.53515 -5.28125,2.65625 -0.57812,0.39453 -1.125,0.80468 -1.59765,1.32421 -1.21094,1.33985 -2.34766,2.73829 -3.33203,4.25782 -2.59766,4.01562 -5.50391,7.78125 -8.875,11.17968 -0.67188,0.67969 -1.28907,1.41797 -1.96485,2.34375 0.40235,-0.0391 0.58985,-0.14062 0.78125,-0.2539 1.1875,-0.71485 2.37891,-1.41797 3.66797,-1.94531 0.57422,-0.23438 0.97656,-0.66016 1.35547,-1.14454 1.62109,-2.08203 3.27734,-4.13281 4.90234,-6.21484 0.98438,-1.25781 2.16407,-2.3125 3.51953,-3.10156 1.39063,-0.8125 2.87891,-1.47266 4.375,-2.08203 2.25782,-0.91797 4.5586,-1.73047 6.72266,-2.86719 0.0586,-0.0273 0.1875,0.004 0.23828,0.0508 0.0547,0.0508 0.0937,0.17969 0.0664,0.23828 -0.0977,0.20703 -0.20703,0.41406 -0.34766,0.59375 -0.47265,0.62891 -0.98437,1.23047 -1.4414,1.86719 -1.71094,2.36719 -3.60157,4.58594 -5.52735,6.77734 -0.83203,0.94532 -1.8164,1.69532 -2.95703,2.25782 -1.86719,0.92578 -3.80859,1.69921 -5.79297,2.28125 -2.86719,0.83984 -5.43359,2.29296 -8.04297,3.66796 -0.44922,0.23438 -0.88672,0.48438 -1.35156,0.69141 -0.89062,0.39453 -1.73437,0.87109 -2.37109,1.64453 -1.97657,2.40625 -4.25782,4.5 -6.5625,6.57422 -0.44922,0.40234 -0.92188,0.76953 -1.40625,1.125 -0.32032,0.23438 -0.73047,0.10547 -0.94141,-0.25391 -0.16406,-0.28906 -0.0703,-0.53515 0.16016,-0.73828 0.13672,-0.125 0.29297,-0.22656 0.4375,-0.33984 2.67968,-2.13281 5.22656,-4.41797 7.63281,-6.85547 1.07422,-1.08594 2.13281,-2.19141 3.11719,-3.35547 1.34765,-1.58594 2.63672,-3.22656 4.07422,-4.73437 0.34765,-0.36719 0.64843,-0.78125 0.97265,-1.17578 0.14453,-0.17969 0.27344,-0.36719 0.30469,-0.60938 0.0781,-0.69141 0.17969,-1.375 0.25,-2.06641 0.082,-0.82031 -0.11328,-1.5625 -0.64844,-2.20312 -0.59765,-0.71875 -0.97265,-1.5625 -1.33984,-2.41797 -0.3125,-0.72266 -0.64063,-1.44141 -1.01953,-2.12891 -0.37891,-0.70312 -0.63672,-1.43359 -0.75,-2.22265 -0.0859,-0.59375 -0.17578,-1.19922 -0.36328,-1.76563 -0.25,-0.76562 -0.33985,-1.53125 -0.30079,-2.32812 0.043,-0.83203 0.0625,-1.66797 0.125,-2.5 0.16407,-2.22266 0.92188,-4.24609 2.1211,-6.10938 0.26172,-0.40625 0.40625,-0.4375 0.7539,-0.125 1.21094,1.08594 2.31641,2.26172 3.01563,3.75782 0.42969,0.92187 0.82422,1.85937 1.21484,2.80468 0.1211,0.29297 0.21875,0.61719 0.24219,0.9336 0.12891,1.57422 0.25781,3.14453 -0.0234,4.71484 -0.39843,2.24219 -0.83984,4.48047 -1.88672,6.52344 -0.60937,1.1914 -0.5,2.39844 -0.35156,3.625 0.29688,0.0352 0.38281,-0.14453 0.48047,-0.27735 2.16406,-2.95312 4.25391,-5.95312 6.13281,-9.09765 0.5,-0.83203 0.94922,-1.69531 1.40235,-2.55859 0.1289,-0.23829 0.25781,-0.51563 0.26562,-0.77735 0.0547,-1.98828 0.33203,-3.97265 0.19141,-5.97265 -0.0273,-0.39844 -0.15625,-0.67579 -0.45313,-0.95313 -0.50781,-0.46875 -0.90234,-1.03906 -0.92187,-1.78125 0.63281,0.30469 0.59765,1.12109 1.25,1.57422 z m -5.83985,24.94922 c 0.47657,-0.10938 0.88282,-0.32422 1.1211,-0.78516 0.16015,0.0195 0.29687,-0.0273 0.39062,-0.16406 0.16016,0.0664 0.28125,0.0195 0.35547,-0.13672 0.42188,0.0156 0.67578,-0.19922 0.8086,-0.58203 0.17187,0.0664 0.28515,-0.0117 0.35937,-0.16406 0.53125,-0.0234 0.91016,-0.28516 1.17188,-0.73829 0.39453,-0.0273 0.625,-0.26562 0.78125,-0.60156 0.13671,-0.0469 0.26953,-0.0977 0.40234,-0.14453 0.14453,-0.14062 0.28906,-0.28125 0.42969,-0.42187 -0.13672,0.15234 -0.27344,0.30078 -0.41016,0.45312 -0.13672,0.0469 -0.27344,0.0937 -0.40625,0.14063 -0.33984,0.0898 -0.64453,0.22656 -0.79687,0.57421 -0.51172,0.0625 -0.87891,0.34375 -1.16016,0.76172 -0.17188,-0.0625 -0.28516,0.0117 -0.35938,0.16407 -0.39062,0.0273 -0.65625,0.22656 -0.80859,0.58593 -0.15625,-0.0586 -0.26562,0.0156 -0.35547,0.13282 -0.1289,0.0586 -0.25781,0.11718 -0.38672,0.17187 -0.42578,0.1875 -0.90234,0.29688 -1.12109,0.78125 -0.15625,-0.0391 -0.27344,0.0156 -0.35938,0.14844 l -0.0586,0.0234 0.043,-0.0156 c 0.12109,-0.0625 0.24219,-0.12109 0.35937,-0.18359 z m 3.74219,-1.26563 c 0.1211,-0.0508 0.23828,-0.10156 0.35547,-0.15234 1.96094,-0.63672 3.66406,-1.66406 5.00781,-3.25781 0.5586,-0.66797 1.13672,-1.32422 1.71485,-1.97657 0.24609,-0.27734 0.46484,-0.57031 0.57812,-0.92968 0.0703,-0.0352 0.14453,-0.0664 0.21485,-0.10157 -0.1875,-0.15625 -0.13282,0.0898 -0.20313,0.125 -0.66406,0.32813 -1.19141,0.83594 -1.73047,1.32032 -1.66797,1.5039 -3.33594,3.0039 -5.15625,4.32421 -0.1875,0.13282 -0.36328,0.27735 -0.41406,0.52344 -0.14453,-0.0156 -0.26953,0.0156 -0.35156,0.15235 -0.12891,0.0508 -0.25391,0.10156 -0.38282,0.15234 l -0.0703,0.0195 0.0547,-0.004 c 0.12891,-0.0625 0.25781,-0.1289 0.38281,-0.19531 z M 182.25,133.78125 c -0.0156,0.0664 -0.0781,0.043 -0.043,-0.0391 0.004,0 -0.0117,-0.0469 -0.0117,-0.0469 l 0.008,0.0547 c 0.15625,0.0937 0.0859,-0.14453 0.0469,0.0312 z m -0.25,-0.98047 0.0273,-0.0586 c -0.0664,-0.11328 -0.13672,-0.22266 -0.21093,-0.33203 0.0117,-0.0898 0.0508,-0.19141 0.0273,-0.27344 -0.64844,-2.2461 -0.64453,-4.55859 -0.70703,-6.87109 -0.0469,-1.75782 -0.0664,-3.51563 0.0664,-5.26954 0.0586,-0.72656 0.13282,-1.44921 0.19922,-2.17187 -0.30859,-0.10938 -0.32422,0.15234 -0.39062,0.28516 -0.75,1.41015 -1.09766,2.9414 -1.23047,4.51953 -0.0859,1.01172 -0.0937,2.03125 -0.10938,3.04687 -0.004,0.36719 0.0117,0.75781 0.12891,1.09766 0.33984,0.96484 0.48047,1.97265 0.67969,2.96875 0.19922,1.0039 0.60547,1.92187 1.34375,2.66406 -0.0352,0.19141 0.0625,0.28516 0.23437,0.32031 z m 17.15625,2.33984 c 0,0.008 0,0.0156 0,0.0195 -0.0781,-0.0156 0.0156,-0.0117 0,-0.0195 z m -1.75391,-0.0469 c -0.14843,0.11719 -0.29687,0.23437 -0.44531,0.34766 l -0.0625,0.0273 0.0508,-0.0195 c 0.15235,-0.12891 0.30078,-0.25391 0.45313,-0.38281 0.14453,-0.16407 0.28906,-0.32422 0.43359,-0.48438 l 0.0664,-0.0234 -0.0508,0.0117 c -0.14844,0.17578 -0.29688,0.34766 -0.44532,0.52344 z m -1.72656,1.39453 c -0.15234,0.13672 -0.30469,0.26953 -0.45703,0.40625 -0.20313,0.0859 -0.35938,0.21484 -0.44531,0.42188 -0.043,0.004 -0.10157,-0.0117 -0.13672,0.0117 -1.76172,1.17579 -3.54688,2.32813 -5.20703,3.65235 -0.13672,0.10547 -0.21875,0.28515 -0.32422,0.42969 -0.17188,-0.0586 -0.27735,0.0312 -0.3711,0.16015 -0.25,0.043 -0.35546,0.23047 -0.42578,0.44922 l -0.0977,-0.008 0.0859,-0.0234 c 0.23829,-0.0586 0.35157,-0.23047 0.42579,-0.44531 0.16796,0.0508 0.28125,-0.0234 0.37109,-0.15625 0.73828,-0.15235 1.26562,-0.6836 1.87109,-1.06641 0.88282,-0.5625 1.7461,-1.14844 2.58985,-1.76562 0.46875,-0.34375 0.98437,-0.66797 1.20703,-1.26172 0.28515,0.008 0.33594,-0.23828 0.4414,-0.42188 0.2461,-0.0273 0.33594,-0.23828 0.46094,-0.41015 0.23047,-0.0703 0.32031,-0.27735 0.42578,-0.46485 l 0.0664,0.004 h -0.043 c -0.14453,0.16016 -0.28906,0.32422 -0.4375,0.48828 z m -6.10937,2.25391 c 1.21484,-0.97266 2.35937,-2.04297 3.64062,-2.9375 0.0703,-0.0469 0.0977,-0.15235 0.14453,-0.23047 0.14844,0.0547 0.23438,-0.043 0.33203,-0.13281 0.0937,-0.082 0.10938,-0.14454 0.0156,-0.19141 -0.0273,-0.0156 -0.0937,-0.004 -0.11719,0.0195 -0.0859,0.0937 -0.16016,0.19531 -0.23828,0.29297 -0.48828,-0.0273 -0.91016,0.1875 -1.28125,0.44141 -1.33203,0.91796 -2.60938,1.90625 -3.56641,3.24218 -0.13281,0.1836 -0.20312,0.41016 -0.30078,0.61719 -0.0742,0.0352 -0.14453,0.0703 -0.21484,0.10547 0.1914,0.15234 0.13281,-0.0859 0.19922,-0.12891 0.57422,-0.22265 0.92578,-0.73047 1.38672,-1.09765 z M 189,140.48437 c 1.83984,-1.28515 3.67187,-2.57421 5.48047,-3.90625 0.69922,-0.51171 1.32812,-1.125 1.96875,-1.71484 0.12109,-0.10937 0.15234,-0.31641 0.22656,-0.48047 l 0.0664,0.0508 -0.0547,-0.0195 c -1.52344,0.48828 -2.67578,1.58985 -3.92188,2.51172 -1.66406,1.22656 -3.28515,2.51953 -4.72656,4.01563 -0.0391,0.0547 -0.0742,0.10937 -0.11328,0.16406 0.0352,-0.0625 0.0742,-0.125 0.10938,-0.1875 0.41406,0.0703 0.67968,-0.23438 0.96484,-0.4336 z m -6.26172,-22.30468 c -0.043,0.89062 0.16406,1.74609 0.42188,2.58594 0.20703,0.67578 0.27734,1.34375 0.26171,2.05078 -0.0508,1.89843 0.0273,3.79687 0.22266,5.68359 0.082,0.78906 -0.0312,1.57031 0.0625,2.55469 0.28516,-0.82032 0.31641,-1.48438 0.36719,-2.14453 0.0586,-0.83204 0.14844,-1.66407 0.1914,-2.4961 0.0273,-0.50781 0.0156,-1.01562 -0.0195,-1.52343 -0.0586,-0.83204 -0.11718,-1.66797 -0.23828,-2.48829 -0.21094,-1.46875 -0.61719,-2.88671 -1.29297,-4.21093 z m 10.03516,-1.41016 c 0.0117,-0.0234 0.0312,-0.0469 0.0352,-0.0703 0.008,-0.0352 0.008,-0.0781 0.008,-0.11719 0.0742,-2.60547 -0.3086,-5.17187 -0.60157,-7.74219 -0.0586,-0.50781 -0.0937,-1.01562 -0.14062,-1.51953 -0.0312,-0.36718 -0.0234,-0.74609 -0.10156,-1.10547 -0.25,-1.125 -0.59375,-2.22656 -0.76954,-3.40234 -0.0547,0.48828 -0.13671,0.97656 -0.16406,1.46875 -0.0937,1.66406 -0.0742,3.32813 0.20313,4.98047 0.13672,0.82031 0.21484,1.65234 0.26562,2.48437 0.0937,1.49219 0.45703,2.92188 0.91797,4.32813 0.0703,0.21875 0.14844,0.44531 0.42188,0.49219 -0.0234,0.0664 -0.0508,0.13281 -0.0742,0.20312 z m 6.52343,-11.17187 c -0.0508,0.11718 -0.0312,0.17968 0.0586,0.15625 0.0195,-0.004 0.0273,-0.0781 0.0273,-0.1211 0,-0.0859 -0.0117,-0.17187 -0.0156,-0.25781 0.13281,-2.82422 1.01562,-5.429688 2.18359,-7.96875 1.23438,-2.6875 2.26953,-5.460938 3.24219,-8.253906 0.0391,-0.113282 0.0391,-0.242188 0.0156,-0.378906 -0.65234,1.746093 -1.77734,3.226562 -2.61328,4.867187 -1.45703,2.855469 -2.6289,5.800781 -2.97656,9.023435 -0.0742,0.6875 -0.14063,1.38282 -0.0547,2.07422 0.0312,0.21875 0.008,0.46875 0.23047,0.61719 -0.0312,0.082 -0.0625,0.16406 -0.0977,0.24219 z m -15.6914,13.1914 -0.004,0.0508 c 0.26953,0.83594 0.54297,1.67188 0.8125,2.50782 0.0273,0.0898 0.0586,0.17968 0.0664,0.26953 0.1289,1.79687 0.4414,3.57031 0.30469,5.39844 -0.17188,2.26562 -0.51563,4.50781 -0.76954,6.76171 -0.008,0.0859 0.0312,0.17188 0.0469,0.26172 0.24609,0.043 0.3125,-0.14844 0.38672,-0.30859 0.7539,-1.66797 1.02344,-3.46094 1.35156,-5.23828 0.28516,-1.5625 0.23828,-3.13672 0.13672,-4.71094 -0.0156,-0.27734 -0.0273,-0.57031 -0.12891,-0.82031 -0.55078,-1.3711 -1.17968,-2.71094 -1.95703,-3.96875 -0.043,-0.0664 -0.16015,-0.0859 -0.23828,-0.12891 z m 23.23437,-6.98437 c -1.63672,1.26953 -3.30468,2.53125 -4.57812,4.21094 -1.20703,1.58203 -2.33594,3.21875 -3.36328,4.92578 -0.0703,0.11328 -0.0977,0.2539 -0.21875,0.57812 0.96484,-0.90625 1.8164,-1.64453 2.60156,-2.45312 1.125,-1.16016 2.20312,-2.36719 3.30469,-3.55078 0.22265,-0.23829 0.42187,-0.50782 0.67968,-0.69141 1.19532,-0.83203 2.01563,-2.02344 2.96094,-3.09375 0.3125,-0.35547 0.54297,-0.75 0.71094,-1.18359 0.0352,-0.0469 0.0703,-0.0898 0.10547,-0.14063 -0.0234,0.0195 -0.0547,0.0352 -0.0703,0.0586 -0.0156,0.0312 -0.0195,0.0664 -0.0234,0.10157 -0.79688,0.25 -1.48438,0.75 -2.10938,1.23828 z m -7.25,-1.5625 c 1.08594,-3.20313 2.13282,-6.41797 2.91407,-9.71094 0.54296,-2.296875 1.13281,-4.582031 1.70703,-6.90625 -0.39844,0.234375 -0.37891,0.667969 -0.5586,0.984375 -0.20312,0.359375 -0.40625,0.726563 -0.5664,1.113281 -0.78125,1.882813 -1.55078,3.765625 -2.3125,5.660154 -0.34375,0.86328 -0.55078,1.76563 -0.66407,2.69141 -0.18359,1.5625 -0.39453,3.12109 -0.5625,4.6875 -0.0547,0.48437 -0.24609,0.99609 0.0703,1.46875 -0.0117,-0.004 0.004,0.0586 -0.0273,0.0117 z m 2.75782,12.84375 c 0.1875,-0.13281 0.33593,-0.31641 0.52734,-0.44922 2.55859,-1.80078 4.1875,-4.37891 5.77344,-6.99219 0.21484,-0.35156 0.38672,-0.73828 0.53515,-1.125 0.46485,-1.20703 0.91407,-2.42187 1.29688,-3.66406 -0.78906,0.89844 -1.25391,1.98437 -1.8125,3.01172 -0.86719,1.58203 -1.8711,3.07031 -3.10156,4.40234 -0.53125,0.57422 -1.05469,1.16016 -1.55079,1.76563 -0.79296,0.97265 -1.74218,1.78125 -2.66796,2.61328 -0.51563,0.46484 -1.13282,0.77734 -1.7461,1.10937 -1.09375,0.59375 -2.125,1.28907 -2.71094,2.46485 l -0.0703,0.0117 0.0508,-0.004 c 2.09766,-0.5625 3.75391,-1.91406 5.47657,-3.14453 z m -10.41797,-22.50781 c 0.10156,1.70703 0.0781,3.42578 0.50781,5.09375 0.0898,0.35937 0.1875,0.72656 0.20312,1.08984 0.0977,2.22656 0.45313,4.42187 0.67969,6.63281 0.082,0.82422 0.0586,1.66406 0.0859,2.4961 0.0195,0.58593 -0.0156,1.18359 0.17187,1.82421 0.375,-0.23437 0.40235,-0.57421 0.47266,-0.85156 0.625,-2.4414 0.90234,-4.91406 0.75391,-7.43359 -0.0547,-0.97656 -0.2461,-1.92578 -0.57813,-2.84766 -0.15625,-0.4375 -0.33594,-0.875 -0.39453,-1.32812 -0.21484,-1.64844 -0.98437,-3.07422 -1.71094,-4.51953 -0.0352,-0.0664 -0.14453,-0.0937 -0.21875,-0.14063 0.0117,-0.004 0.0195,-0.008 0.0273,-0.0156 z m 14.68359,-12.367192 0.004,0.03906 c -0.0742,2.820312 -0.25782,5.632812 -0.64063,8.425781 -0.40234,2.945313 -1.0664,5.828131 -2.42969,8.496101 -0.69531,1.35937 -1.44531,2.68359 -2.20312,4.00781 -0.38672,0.67578 -0.75391,1.35547 -1.11328,2.08984 0.18359,0.004 0.30078,0.043 0.33984,0.004 0.98828,-0.96875 1.96094,-1.95313 2.79688,-3.0625 1.20703,-1.59766 2.17578,-3.31641 2.8125,-5.22656 0.26172,-0.78907 0.53125,-1.57813 0.8125,-2.35938 0.73047,-2.035158 1.01172,-4.160158 0.85937,-6.285158 -0.14844,-2.058594 -0.40625,-4.132813 -1.23828,-6.070313 z m -2.85937,9.875 c -0.80079,3.183592 -1.50391,6.398442 -2.62891,9.496092 -0.12109,0.34375 -0.21094,0.70313 -0.36719,1.21875 3.50781,-5.09375 4.98438,-10.976561 4.8711,-18.539061 -0.625,2.609375 -1.21875,5.222656 -1.875,7.824219 z m 4.26953,14.863282 c -0.29297,0.35547 -0.55078,0.75781 -0.89844,1.04687 -2.38672,1.97657 -4.28906,4.44532 -6.56641,6.53516 -1.00781,0.92188 -1.8164,2.06641 -2.66015,3.17969 1.14843,-0.41016 2.24218,-0.89063 3.16406,-1.69531 0.48828,-0.42188 1.02734,-0.79688 1.46484,-1.26563 1.375,-1.49219 2.79688,-2.94141 3.95313,-4.62109 0.67969,-0.98438 1.4414,-1.92188 1.9375,-3.02735 0.0898,-0.20703 0.1875,-0.41406 0.29687,-0.65234 -0.36328,0.0547 -0.51562,0.28906 -0.6914,0.5 z m -26.35157,6.78906 c -0.18359,3.5625 -0.0508,7.11328 0.30079,10.66016 0.0664,0.69922 0.28906,1.35547 0.5,2.01172 0.082,0.25 0.0703,0.55859 0.36328,0.69531 0.0391,-0.0312 0.10937,-0.0586 0.10937,-0.0859 -0.004,-1.75 0.15625,-3.49219 0.008,-5.2539 -0.14062,-1.69532 -0.30859,-3.41016 -0.19921,-5.1211 0.043,-0.65625 -0.0352,-1.28515 -0.22657,-1.91406 -0.1875,-0.60547 -0.3125,-1.23438 -0.47265,-1.875 -0.40625,0.23828 -0.36719,0.58594 -0.38282,0.88281 z m 0,0"
             fill-opacity="1"
             fill-rule="nonzero"
             id="path47" />
        </g>
      </g>
    </g>
  </g>
</svg>
