<?xml version="1.0" encoding="UTF-8" standalone="no"?>
<!-- Created with Inkscape (http://www.inkscape.org/) -->

<svg
   version="1.1"
   id="svg161"
   width="559.6795"
   height="211.9709"
   viewBox="0 0 634.68 240.37631"
   sodipodi:docname="mountains.svg"
   inkscape:version="1.2.2 (b0a8486, 2022-12-01)"
   xmlns:inkscape="http://www.inkscape.org/namespaces/inkscape"
   xmlns:sodipodi="http://sodipodi.sourceforge.net/DTD/sodipodi-0.dtd"
   xmlns="http://www.w3.org/2000/svg"
   xmlns:svg="http://www.w3.org/2000/svg">
  <defs
     id="defs165" />
  <sodipodi:namedview
     id="namedview163"
     pagecolor="#ffffff"
     bordercolor="#000000"
     borderopacity="0.25"
     inkscape:showpageshadow="2"
     inkscape:pageopacity="0.0"
     inkscape:pagecheckerboard="0"
     inkscape:deskcolor="#d1d1d1"
     showgrid="false"
     inkscape:zoom="0.77025451"
     inkscape:cx="280.42679"
     inkscape:cy="106.45832"
     inkscape:window-width="1440"
     inkscape:window-height="762"
     inkscape:window-x="0"
     inkscape:window-y="25"
     inkscape:window-maximized="0"
     inkscape:current-layer="g169" />
  <g
     id="g169"
     inkscape:groupmode="layer"
     inkscape:label="Page 1"
     transform="matrix(1.3333333,0,0,-1.3333333,-21.53777,425.56714)">
    <g
       id="g1001"
       transform="matrix(2.2589863,0,0,2.2589863,-44.888871,-139.82257)">
      <path
         d="m 138.705,128.097 c -0.09,0 -0.181,0.017 -0.268,0.055 l -7.888,3.401 -9.974,2.41 c -0.073,0.019 -0.143,0.049 -0.207,0.089 l -7.229,4.635 -9.898,1.83 -6.2097,0.967 -6.6524,-2.641 c -0.0519,-0.021 -0.1062,-0.035 -0.1613,-0.043 l -9.6449,-1.274 -7.9438,-2.913 -2.3699,-2.588 c -0.0563,-0.061 -0.1231,-0.113 -0.1977,-0.149 l -7.4445,-3.708 c -0.0938,-0.047 -0.1969,-0.071 -0.302,-0.071 H 40.1504 c -0.3746,0 -0.6781,0.303 -0.6781,0.678 0,0.374 0.3035,0.678 0.6781,0.678 h 22.0047 l 7.189,3.58 2.3969,2.617 c 0.0731,0.08 0.1645,0.142 0.2664,0.179 l 8.1684,2.995 c 0.0472,0.018 0.0953,0.03 0.1445,0.037 l 9.6363,1.273 6.7461,2.678 c 0.1129,0.046 0.236,0.06 0.3547,0.04 l 6.4106,-0.998 10.048,-1.858 c 0.087,-0.016 0.169,-0.048 0.243,-0.096 l 7.246,-4.645 9.918,-2.398 c 0.038,-0.009 0.074,-0.021 0.109,-0.037 l 7.941,-3.423 c 0.344,-0.148 0.502,-0.547 0.355,-0.891 -0.111,-0.256 -0.361,-0.409 -0.623,-0.409"
         style="fill:#696767;fill-opacity:1;fill-rule:nonzero;stroke:none;stroke-width:0.1"
         id="path303" />
      <path
         d="m 224.612,128.097 h -38.171 c -0.374,0 -0.678,0.303 -0.678,0.678 0,0.374 0.304,0.678 0.678,0.678 h 38.171 c 0.374,0 0.678,-0.304 0.678,-0.678 0,-0.375 -0.304,-0.678 -0.678,-0.678"
         style="fill:#696767;fill-opacity:1;fill-rule:nonzero;stroke:none;stroke-width:0.1"
         id="path305" />
      <path
         d="m 178.222,128.097 h -58.625 c -0.375,0 -0.678,0.303 -0.678,0.678 0,0.374 0.303,0.678 0.678,0.678 h 58.625 c 0.375,0 0.678,-0.304 0.678,-0.678 0,-0.375 -0.303,-0.678 -0.678,-0.678"
         style="fill:#696767;fill-opacity:1;fill-rule:nonzero;stroke:none;stroke-width:0.1"
         id="path307" />
      <path
         d="m 196.304,128.097 c -0.057,0 -0.114,0.007 -0.172,0.022 l -3.811,0.998 c -0.064,0.017 -0.124,0.042 -0.18,0.076 l -8.686,5.278 -8.229,6.318 -6.934,4.357 -5.949,2.547 -12.589,7.457 -3.879,2.395 -7.069,2.543 -10.587,5.242 -5.331,0.138 c -0.063,0.002 -0.125,0.012 -0.185,0.031 l -2.14,0.671 -6.314,-0.67 -1.789,-2.079 c -0.081,-0.094 -0.187,-0.164 -0.305,-0.202 l -3.454,-1.122 -3.562,-1.965 -7.4023,-4.824 -7.7976,-4.305 c -3.4,-2.322 -9.2418,-6.296 -9.5575,-6.441 -0.3109,-0.143 -2.7226,-0.817 -3.8925,-1.139 l -2.8356,-2.335 -2.6082,-2.4 -11.6308,-10.418 c -0.2805,-0.252 -0.7082,-0.226 -0.9575,0.053 -0.25,0.279 -0.2261,0.706 0.0524,0.957 l 14.2547,12.831 2.975,2.45 c 0.0738,0.06 0.1586,0.104 0.2507,0.13 1.702,0.469 3.6016,1.012 3.8344,1.107 0.3551,0.203 5.8242,3.916 9.4055,6.358 l 7.8094,4.314 7.4019,4.824 3.662,2.022 c 0.037,0.021 0.077,0.038 0.118,0.051 l 3.335,1.083 1.84,2.139 c 0.113,0.13 0.271,0.213 0.443,0.231 l 6.721,0.713 c 0.093,0.011 0.186,0.001 0.274,-0.026 l 2.184,-0.686 5.386,-0.139 c 0.098,-0.003 0.195,-0.027 0.283,-0.071 l 10.65,-5.278 7.063,-2.536 c 0.044,-0.016 0.087,-0.036 0.126,-0.062 l 3.93,-2.425 12.5,-7.411 5.919,-2.527 c 0.032,-0.014 0.064,-0.031 0.094,-0.05 L 176,141.9 l 8.22,-6.312 8.54,-5.185 3.715,-0.973 c 0.362,-0.095 0.579,-0.465 0.484,-0.828 -0.079,-0.304 -0.354,-0.505 -0.655,-0.505"
         style="fill:#696767;fill-opacity:1;fill-rule:nonzero;stroke:none;stroke-width:0.1"
         id="path309" />
      <path
         d="m 96.2293,144.643 c -0.1715,0 -0.3426,0.064 -0.4746,0.193 -0.2672,0.262 -0.2719,0.691 -0.0102,0.959 l 2.7918,2.852 c 0.0328,0.034 0.0692,0.064 0.1075,0.09 l 3.4122,2.282 c 0.073,0.048 0.155,0.083 0.241,0.1 l 2.376,0.487 0.516,2.013 c 0.032,0.127 0.101,0.242 0.197,0.331 l 1.752,1.612 1.052,2.506 0.504,2.779 c 0.02,0.114 0.07,0.22 0.143,0.309 l 2.586,3.138 c 0.237,0.289 0.664,0.329 0.954,0.093 0.289,-0.238 0.33,-0.666 0.092,-0.954 l -2.473,-3.002 -0.486,-2.679 c -0.008,-0.048 -0.022,-0.095 -0.041,-0.141 l -1.138,-2.71 c -0.037,-0.09 -0.094,-0.17 -0.166,-0.236 l -1.713,-1.577 -0.571,-2.23 c -0.064,-0.251 -0.266,-0.444 -0.52,-0.496 l -2.662,-0.544 -3.2427,-2.169 -2.7426,-2.803 c -0.1328,-0.135 -0.3086,-0.203 -0.4844,-0.203"
         style="fill:#696767;fill-opacity:1;fill-rule:nonzero;stroke:none;stroke-width:0.1"
         id="path311" />
      <path
         d="m 175.848,128.097 c -0.133,0 -0.267,0.039 -0.385,0.12 l -7.654,5.277 c -0.04,0.027 -0.078,0.06 -0.112,0.096 l -3.264,3.519 -3.463,2.528 -4.302,2.684 -5.457,3.124 -5.121,3.601 c -0.132,0.092 -0.226,0.229 -0.266,0.385 l -0.62,2.425 c -0.06,0.233 0.007,0.479 0.177,0.648 0.17,0.169 0.415,0.236 0.648,0.177 l 9.41,-2.425 c 0.042,-0.011 0.084,-0.026 0.124,-0.045 l 7.049,-3.383 7.529,-1.304 c 0.369,-0.063 0.616,-0.414 0.552,-0.783 -0.064,-0.369 -0.417,-0.621 -0.784,-0.552 l -7.621,1.32 c -0.061,0.01 -0.121,0.029 -0.177,0.056 l -7.075,3.395 -8.235,2.122 0.274,-1.072 4.862,-3.422 5.427,-3.103 4.365,-2.725 3.556,-2.594 c 0.035,-0.026 0.068,-0.055 0.097,-0.087 l 3.259,-3.511 7.592,-5.235 c 0.308,-0.212 0.386,-0.635 0.173,-0.944 -0.132,-0.19 -0.343,-0.292 -0.558,-0.292"
         style="fill:#696767;fill-opacity:1;fill-rule:nonzero;stroke:none;stroke-width:0.1"
         id="path313" />
      <path
         d="m 212.969,128.097 c -0.155,0 -0.31,0.053 -0.438,0.16 l -2.692,2.283 c -0.075,0.063 -0.135,0.142 -0.176,0.231 l -1.586,3.416 -2.454,1.896 c -0.061,0.047 -0.114,0.104 -0.155,0.169 l -1.589,2.466 -5.384,4.065 -8.543,5.534 -6.112,4.145 -4.001,2.405 c -0.043,0.026 -0.082,0.055 -0.118,0.09 l -4.294,4.09 -4.907,3.103 -8.141,6.902 -6.647,4.225 c -0.066,0.043 -0.125,0.096 -0.173,0.158 l -1.687,2.192 -3.626,2.361 -3.732,3 -2.816,1.578 -2.532,-2.496 -3.941,-3.012 -5.023,-5.656 -5.714,-5.811 c -0.262,-0.267 -0.691,-0.27 -0.958,-0.009 -0.267,0.264 -0.271,0.692 -0.008,0.959 l 5.69,5.786 5.042,5.681 c 0.029,0.032 0.061,0.062 0.096,0.089 l 3.929,2.995 2.831,2.797 c 0.215,0.213 0.543,0.255 0.807,0.109 l 3.309,-1.855 c 0.032,-0.018 0.064,-0.04 0.093,-0.063 l 3.722,-2.995 3.668,-2.385 c 0.064,-0.042 0.12,-0.094 0.167,-0.155 l 1.685,-2.188 6.62,-4.216 8.14,-6.901 4.887,-3.083 c 0.038,-0.024 0.073,-0.051 0.106,-0.081 l 4.288,-4.086 3.968,-2.386 6.132,-4.157 8.57,-5.554 5.519,-4.165 c 0.064,-0.048 0.119,-0.106 0.162,-0.174 l 1.592,-2.47 2.492,-1.925 c 0.086,-0.067 0.155,-0.152 0.201,-0.251 l 1.591,-3.431 2.579,-2.185 c 0.286,-0.242 0.321,-0.67 0.079,-0.956 -0.134,-0.158 -0.325,-0.239 -0.518,-0.239"
         style="fill:#696767;fill-opacity:1;fill-rule:nonzero;stroke:none;stroke-width:0.1"
         id="path315" />
      <path
         d="m 45.6301,128.097 c -0.2094,0 -0.416,0.096 -0.5488,0.279 -0.22,0.302 -0.1536,0.726 0.1492,0.946 l 6.6004,4.806 c 0.0461,0.033 0.0961,0.061 0.1492,0.083 l 5.2929,2.094 5.9637,7.164 c 0.0578,0.07 0.1289,0.126 0.209,0.168 l 6.6031,3.424 8.2051,8.987 c 0.0434,0.047 0.0926,0.088 0.1465,0.121 l 4.6004,2.82 4.0902,3.668 c 0.0238,0.022 0.0488,0.041 0.0762,0.059 l 3.4121,2.282 5.002,2.877 c 0.1582,0.091 0.3464,0.116 0.5222,0.064 l 4.0325,-1.141 3.665,-0.699 c 0.063,-0.012 0.123,-0.032 0.179,-0.061 l 4.861,-2.462 c 0.334,-0.169 0.468,-0.576 0.299,-0.91 -0.17,-0.335 -0.576,-0.469 -0.912,-0.299 l -4.775,2.418 -3.6288,0.695 -3.8152,1.077 -4.7156,-2.71 -3.3329,-2.231 -4.1003,-3.678 c -0.0301,-0.027 -0.0633,-0.051 -0.0981,-0.072 l -4.5711,-2.803 -8.2222,-9.005 c -0.0543,-0.059 -0.118,-0.109 -0.1891,-0.145 l -6.5887,-3.416 -5.9871,-7.192 c -0.0726,-0.087 -0.166,-0.155 -0.2711,-0.197 l -5.373,-2.127 -6.5313,-4.754 c -0.1207,-0.089 -0.2601,-0.13 -0.3984,-0.13"
         style="fill:#696767;fill-opacity:1;fill-rule:nonzero;stroke:none;stroke-width:0.1"
         id="path317" />
      <path
         d="m 189.93,154.149 c -0.1,0 -0.201,0.022 -0.297,0.068 -0.337,0.165 -0.476,0.571 -0.312,0.907 2.599,5.314 2.646,11.427 0.129,16.772 -2.203,4.68 -6.098,8.221 -10.965,9.971 -4.868,1.751 -10.125,1.5 -14.804,-0.703 -1.984,-0.935 -3.775,-2.18 -5.323,-3.701 -0.267,-0.261 -0.695,-0.258 -0.959,0.009 -0.262,0.267 -0.258,0.696 0.009,0.959 1.657,1.627 3.573,2.96 5.695,3.959 5.007,2.359 10.632,2.627 15.841,0.753 5.208,-1.873 9.375,-5.662 11.733,-10.668 2.693,-5.72 2.643,-12.261 -0.137,-17.946 -0.118,-0.241 -0.359,-0.38 -0.61,-0.38"
         style="fill:#696767;fill-opacity:1;fill-rule:nonzero;stroke:none;stroke-width:0.1"
         id="path319" />
      <path
         d="m 166.165,186.901 c -0.309,0 -0.588,0.213 -0.66,0.528 l -2.141,9.384 c -0.083,0.364 0.145,0.728 0.51,0.812 0.369,0.08 0.729,-0.146 0.812,-0.511 l 2.141,-9.384 c 0.083,-0.364 -0.145,-0.728 -0.51,-0.812 -0.051,-0.011 -0.102,-0.017 -0.152,-0.017"
         style="fill:#696767;fill-opacity:1;fill-rule:nonzero;stroke:none;stroke-width:0.1"
         id="path321" />
      <path
         d="m 202.833,146.347 c -0.104,0 -0.209,0.024 -0.308,0.074 l -8.566,4.391 c -0.333,0.172 -0.465,0.58 -0.293,0.914 0.171,0.332 0.579,0.462 0.912,0.294 l 8.565,-4.392 c 0.333,-0.171 0.465,-0.579 0.294,-0.913 -0.12,-0.234 -0.358,-0.368 -0.604,-0.368"
         style="fill:#696767;fill-opacity:1;fill-rule:nonzero;stroke:none;stroke-width:0.1"
         id="path323" />
      <path
         d="m 205.127,151.98 c -0.066,0 -0.134,0.009 -0.2,0.029 l -9.198,2.838 c -0.357,0.111 -0.558,0.49 -0.448,0.848 0.111,0.358 0.49,0.557 0.848,0.448 l 9.198,-2.837 c 0.357,-0.111 0.558,-0.49 0.447,-0.848 -0.089,-0.291 -0.358,-0.478 -0.647,-0.478"
         style="fill:#696767;fill-opacity:1;fill-rule:nonzero;stroke:none;stroke-width:0.1"
         id="path325" />
      <path
         d="m 206.407,157.925 c -0.028,0 -0.056,0.002 -0.085,0.006 l -9.55,1.198 c -0.372,0.046 -0.635,0.385 -0.588,0.757 0.046,0.371 0.389,0.636 0.756,0.588 l 9.551,-1.198 c 0.371,-0.047 0.635,-0.385 0.588,-0.757 -0.043,-0.342 -0.335,-0.594 -0.672,-0.594"
         style="fill:#696767;fill-opacity:1;fill-rule:nonzero;stroke:none;stroke-width:0.1"
         id="path327" />
      <path
         d="m 197.021,163.524 c -0.359,0 -0.659,0.282 -0.677,0.645 -0.019,0.374 0.269,0.692 0.643,0.71 l 9.614,0.479 c 0.385,0.022 0.692,-0.269 0.711,-0.643 0.018,-0.374 -0.269,-0.692 -0.643,-0.711 l -9.614,-0.479 c -0.012,-0.001 -0.023,-0.001 -0.034,-0.001"
         style="fill:#696767;fill-opacity:1;fill-rule:nonzero;stroke:none;stroke-width:0.1"
         id="path329" />
      <path
         d="m 196.419,167.887 c -0.309,0 -0.588,0.213 -0.66,0.527 -0.083,0.365 0.145,0.728 0.51,0.812 l 9.384,2.141 c 0.367,0.077 0.728,-0.146 0.812,-0.51 0.083,-0.365 -0.145,-0.729 -0.511,-0.812 l -9.384,-2.141 c -0.05,-0.011 -0.101,-0.017 -0.151,-0.017"
         style="fill:#696767;fill-opacity:1;fill-rule:nonzero;stroke:none;stroke-width:0.1"
         id="path331" />
      <path
         d="m 195.07,172.08 c -0.265,0 -0.516,0.155 -0.625,0.414 -0.146,0.345 0.016,0.742 0.361,0.889 l 8.87,3.737 c 0.348,0.146 0.744,-0.016 0.888,-0.361 0.146,-0.346 -0.016,-0.743 -0.361,-0.889 l -8.87,-3.737 c -0.086,-0.037 -0.176,-0.053 -0.263,-0.053"
         style="fill:#696767;fill-opacity:1;fill-rule:nonzero;stroke:none;stroke-width:0.1"
         id="path333" />
      <path
         d="m 193.012,175.974 c -0.222,0 -0.44,0.109 -0.57,0.31 -0.203,0.315 -0.112,0.734 0.202,0.937 l 8.086,5.221 c 0.315,0.203 0.734,0.112 0.937,-0.202 0.203,-0.314 0.113,-0.734 -0.201,-0.937 l -8.086,-5.221 c -0.114,-0.073 -0.242,-0.108 -0.368,-0.108"
         style="fill:#696767;fill-opacity:1;fill-rule:nonzero;stroke:none;stroke-width:0.1"
         id="path335" />
      <path
         d="m 190.31,179.451 c -0.182,0 -0.364,0.072 -0.498,0.217 -0.254,0.274 -0.238,0.704 0.037,0.958 l 7.056,6.546 c 0.274,0.256 0.702,0.24 0.958,-0.035 0.255,-0.275 0.239,-0.704 -0.036,-0.958 l -7.057,-6.547 c -0.13,-0.122 -0.295,-0.181 -0.46,-0.181"
         style="fill:#696767;fill-opacity:1;fill-rule:nonzero;stroke:none;stroke-width:0.1"
         id="path337" />
      <path
         d="m 187.044,182.407 c -0.143,0 -0.287,0.044 -0.409,0.137 -0.299,0.226 -0.357,0.651 -0.131,0.95 l 5.812,7.673 c 0.227,0.297 0.652,0.357 0.95,0.131 0.298,-0.226 0.357,-0.651 0.131,-0.95 l -5.812,-7.673 c -0.134,-0.175 -0.336,-0.268 -0.541,-0.268"
         style="fill:#696767;fill-opacity:1;fill-rule:nonzero;stroke:none;stroke-width:0.1"
         id="path339" />
      <path
         d="m 183.315,184.75 c -0.104,0 -0.21,0.024 -0.309,0.075 -0.333,0.171 -0.465,0.579 -0.294,0.913 l 4.392,8.565 c 0.172,0.332 0.581,0.462 0.913,0.293 0.333,-0.171 0.465,-0.579 0.293,-0.913 l -4.392,-8.564 c -0.12,-0.234 -0.357,-0.369 -0.603,-0.369"
         style="fill:#696767;fill-opacity:1;fill-rule:nonzero;stroke:none;stroke-width:0.1"
         id="path341" />
      <path
         d="m 179.236,186.41 c -0.066,0 -0.134,0.01 -0.2,0.03 -0.358,0.111 -0.558,0.49 -0.448,0.848 l 2.838,9.198 c 0.11,0.357 0.488,0.558 0.848,0.449 0.357,-0.111 0.558,-0.491 0.447,-0.849 l -2.838,-9.198 c -0.089,-0.291 -0.358,-0.478 -0.647,-0.478"
         style="fill:#696767;fill-opacity:1;fill-rule:nonzero;stroke:none;stroke-width:0.1"
         id="path343" />
      <path
         d="m 174.931,187.338 c -0.028,0 -0.057,0.001 -0.085,0.005 -0.372,0.047 -0.635,0.385 -0.588,0.757 l 1.198,9.551 c 0.046,0.371 0.388,0.638 0.756,0.587 0.372,-0.046 0.635,-0.385 0.588,-0.757 l -1.198,-9.55 c -0.042,-0.342 -0.334,-0.593 -0.671,-0.593"
         style="fill:#696767;fill-opacity:1;fill-rule:nonzero;stroke:none;stroke-width:0.1"
         id="path345" />
      <path
         d="m 170.528,187.503 c -0.359,0 -0.658,0.282 -0.676,0.645 l -0.479,9.612 c -0.018,0.374 0.269,0.692 0.644,0.711 0.37,0.022 0.692,-0.27 0.71,-0.644 l 0.479,-9.612 c 0.018,-0.374 -0.269,-0.692 -0.644,-0.711 -0.011,-0.001 -0.023,-0.001 -0.034,-0.001"
         style="fill:#696767;fill-opacity:1;fill-rule:nonzero;stroke:none;stroke-width:0.1"
         id="path347" />
      <path
         d="m 161.974,185.551 c -0.264,0 -0.516,0.155 -0.625,0.415 l -3.738,8.869 c -0.145,0.345 0.016,0.743 0.361,0.889 0.348,0.145 0.744,-0.017 0.888,-0.362 l 3.738,-8.87 c 0.146,-0.345 -0.016,-0.742 -0.361,-0.888 -0.086,-0.036 -0.175,-0.053 -0.263,-0.053"
         style="fill:#696767;fill-opacity:1;fill-rule:nonzero;stroke:none;stroke-width:0.1"
         id="path349" />
      <path
         d="m 158.08,183.494 c -0.222,0 -0.44,0.11 -0.57,0.31 l -5.222,8.086 c -0.202,0.314 -0.112,0.734 0.202,0.937 0.316,0.202 0.735,0.112 0.938,-0.202 l 5.221,-8.086 c 0.203,-0.314 0.113,-0.734 -0.201,-0.936 -0.114,-0.074 -0.242,-0.109 -0.368,-0.109"
         style="fill:#696767;fill-opacity:1;fill-rule:nonzero;stroke:none;stroke-width:0.1"
         id="path351" />
      <path
         d="m 154.602,180.791 c -0.182,0 -0.363,0.073 -0.497,0.217 l -6.546,7.056 c -0.255,0.274 -0.239,0.704 0.036,0.958 0.274,0.256 0.702,0.24 0.958,-0.035 l 6.546,-7.057 c 0.254,-0.274 0.239,-0.704 -0.036,-0.958 -0.13,-0.121 -0.296,-0.181 -0.461,-0.181"
         style="fill:#696767;fill-opacity:1;fill-rule:nonzero;stroke:none;stroke-width:0.1"
         id="path353" />
      <path
         d="m 72.2047,185.944 c -0.4981,0 -0.9035,-0.405 -0.9035,-0.904 0,-0.498 0.4054,-0.904 0.9035,-0.904 h 26.0394 c 0.2305,0 0.4457,-0.117 0.5704,-0.311 0.1246,-0.195 0.1421,-0.439 0.046,-0.648 -0.0441,-0.097 -0.0664,-0.197 -0.0664,-0.296 0,-0.4 0.325,-0.725 0.7247,-0.725 h 7.4832 c 0.262,0 0.501,-0.151 0.613,-0.388 0.112,-0.238 0.077,-0.518 -0.09,-0.72 -0.104,-0.128 -0.229,-0.339 -0.229,-0.622 0,-0.544 0.443,-0.986 0.987,-0.986 h 1.578 c 0.545,0 0.987,0.442 0.987,0.986 0,0.283 -0.125,0.494 -0.229,0.622 -0.167,0.203 -0.202,0.482 -0.09,0.72 0.112,0.237 0.351,0.388 0.613,0.388 h 7.571 c 0.399,0 0.725,0.325 0.725,0.725 0,0.4 -0.326,0.724 -0.725,0.724 h -4.453 c -0.24,0 -0.462,0.127 -0.584,0.333 -0.122,0.207 -0.126,0.463 -0.01,0.673 0.077,0.14 0.117,0.285 0.117,0.429 0,0.499 -0.406,0.904 -0.904,0.904 h -4.339 c -0.331,0 -0.613,0.239 -0.668,0.566 -0.166,0.982 -1.006,1.694 -1.998,1.694 H 85.5371 c -0.9922,0 -1.832,-0.712 -1.9976,-1.694 -0.0555,-0.327 -0.3375,-0.566 -0.6688,-0.566 z m 37.6563,-7.86 h -1.578 c -1.292,0 -2.343,1.051 -2.343,2.342 0,0.127 0.01,0.252 0.03,0.374 h -6.4512 c -1.1133,0 -2.0258,0.88 -2.0782,1.98 H 72.2047 c -1.2457,0 -2.2598,1.014 -2.2598,2.26 0,1.247 1.0141,2.26 2.2598,2.26 h 10.143 c 0.4683,1.339 1.7304,2.26 3.1894,2.26 h 20.3369 c 1.459,0 2.721,-0.921 3.189,-2.26 h 3.816 c 1.246,0 2.26,-1.013 2.26,-2.26 0,-0.026 0,-0.053 -10e-4,-0.079 h 3.575 c 1.147,0 2.08,-0.933 2.08,-2.08 0,-1.147 -0.933,-2.081 -2.08,-2.081 h -6.539 c 0.02,-0.122 0.03,-0.247 0.03,-0.374 0,-1.291 -1.051,-2.342 -2.343,-2.342"
         style="fill:#696767;fill-opacity:1;fill-rule:nonzero;stroke:none;stroke-width:0.1"
         id="path355" />
      <path
         d="m 58.8727,169.9 c -0.3739,0 -0.6782,-0.304 -0.6782,-0.678 0,-0.373 0.3043,-0.678 0.6782,-0.678 0.3054,0 0.6574,-0.204 0.7382,-0.498 0.175,-0.638 0.7539,-1.083 1.4082,-1.083 h 9.0391 c 0.6543,0 1.2332,0.445 1.4078,1.083 0.0813,0.294 0.3485,0.498 0.6539,0.498 h 10.0278 c 0.3734,0 0.6773,0.305 0.6773,0.678 0,0.374 -0.3039,0.678 -0.6773,0.678 z m 11.1855,-4.293 h -9.0391 c -1.1035,0 -2.0949,0.652 -2.5519,1.634 -0.9547,0.209 -1.6285,1.018 -1.6285,1.981 0,1.122 0.9125,2.034 2.034,2.034 h 23.275 c 1.1211,0 2.0336,-0.912 2.0336,-2.034 0,-1.121 -0.9125,-2.034 -2.0336,-2.034 h -9.5629 c -0.4672,-0.951 -1.443,-1.581 -2.5266,-1.581"
         style="fill:#696767;fill-opacity:1;fill-rule:nonzero;stroke:none;stroke-width:0.1"
         id="path357" />
      <path
         d="m 215.131,164.025 c -0.187,0 -0.339,-0.151 -0.339,-0.338 0,-0.187 0.152,-0.34 0.339,-0.34 h 4.067 c 0.187,0 0.339,0.153 0.339,0.34 0,0.187 -0.152,0.338 -0.339,0.338 z m 4.067,-2.034 h -4.067 c -0.935,0 -1.695,0.761 -1.695,1.696 0,0.935 0.76,1.694 1.695,1.694 h 4.067 c 0.935,0 1.695,-0.759 1.695,-1.694 0,-0.935 -0.76,-1.696 -1.695,-1.696"
         style="fill:#696767;fill-opacity:1;fill-rule:nonzero;stroke:none;stroke-width:0.1"
         id="path359" />
      <path
         d="m 135.928,196.113 c -0.373,0 -0.678,-0.304 -0.678,-0.678 0,-0.374 0.305,-0.678 0.678,-0.678 h 4.745 c 0.374,0 0.678,0.304 0.678,0.678 0,0.374 -0.304,0.678 -0.678,0.678 z m 4.745,-2.712 h -4.745 c -1.121,0 -2.034,0.913 -2.034,2.034 0,1.122 0.913,2.034 2.034,2.034 h 4.745 c 1.122,0 2.034,-0.912 2.034,-2.034 0,-1.121 -0.912,-2.034 -2.034,-2.034"
         style="fill:#696767;fill-opacity:1;fill-rule:nonzero;stroke:none;stroke-width:0.1"
         id="path361" />
      <path
         d="m 48.7035,151.145 c -0.373,0 -0.6773,-0.304 -0.6773,-0.678 0,-0.373 0.3043,-0.678 0.6773,-0.678 h 3.1637 c 0.3738,0 0.6781,0.305 0.6781,0.678 0,0.374 -0.3043,0.678 -0.6781,0.678 z m 3.1637,-2.711 h -3.1637 c -1.1211,0 -2.0332,0.912 -2.0332,2.033 0,1.122 0.9121,2.034 2.0332,2.034 h 3.1637 c 1.1215,0 2.034,-0.912 2.034,-2.034 0,-1.121 -0.9125,-2.033 -2.034,-2.033"
         style="fill:#696767;fill-opacity:1;fill-rule:nonzero;stroke:none;stroke-width:0.1"
         id="path363" />
    </g>
  </g>
</svg>
